<svg id="Layer_1" enable-background="new 0 0 128 128" height="512" viewBox="0 0 128 128" width="512" xmlns="http://www.w3.org/2000/svg"><path d="m107.642 91.773c-4.023 0-7.7 1.483-10.535 3.919l-5.309-5.309c6.15-6.496 9.934-15.254 9.934-24.884s-3.784-18.388-9.934-24.884l5.309-5.309c2.835 2.436 6.512 3.919 10.535 3.919 8.932 0 16.198-7.267 16.198-16.198s-7.266-16.197-16.198-16.197-16.198 7.267-16.198 16.198c0 4.19 1.613 8.002 4.233 10.88l-5.293 5.293c-6.496-6.15-15.254-9.934-24.884-9.934s-18.388 3.784-24.884 9.934l-5.293-5.293c2.62-2.879 4.233-6.69 4.233-10.88 0-8.932-7.267-16.198-16.198-16.198s-16.198 7.267-16.198 16.198 7.267 16.198 16.198 16.198c4.023 0 7.7-1.483 10.535-3.919l5.309 5.309c-6.15 6.496-9.934 15.254-9.934 24.884s3.784 18.388 9.934 24.884l-5.309 5.309c-2.835-2.436-6.512-3.919-10.535-3.919-8.932 0-16.198 7.267-16.198 16.198s7.267 16.198 16.198 16.198 16.198-7.267 16.198-16.198c0-4.19-1.613-8.002-4.233-10.88l5.293-5.293c6.496 6.15 15.254 9.934 24.884 9.934s18.388-3.784 24.884-9.934l5.293 5.293c-2.62 2.879-4.233 6.69-4.233 10.88 0 8.932 7.267 16.198 16.198 16.198s16.198-7.267 16.198-16.198-7.266-16.199-16.198-16.199z" fill="#e6e7e8"/><circle cx="103.642" cy="19.028" fill="#ffd7e5" r="15.198"/><circle cx="103.642" cy="12.793" fill="#6dc9f7" r="4.506"/><path d="m103.642 17.908c-3.729 0-6.752 3.023-6.752 6.752v4.445c0 .367.297.664.664.664h12.177c.367 0 .664-.297.664-.664v-4.445c0-3.729-3.024-6.752-6.753-6.752z" fill="#6dc9f7"/><circle cx="19.358" cy="19.028" fill="#ffd7e5" r="15.198"/><circle cx="19.358" cy="12.793" fill="#6dc9f7" r="4.506"/><path d="m19.358 17.908c-3.729 0-6.752 3.023-6.752 6.752v4.445c0 .367.297.664.664.664h12.177c.367 0 .664-.297.664-.664v-4.445c-.001-3.729-3.024-6.752-6.753-6.752z" fill="#6dc9f7"/><circle cx="103.642" cy="103.972" fill="#ffd7e5" r="15.198"/><circle cx="103.642" cy="97.736" fill="#6dc9f7" r="4.506"/><path d="m103.642 102.852c-3.729 0-6.752 3.023-6.752 6.752v4.445c0 .367.297.664.664.664h12.177c.367 0 .664-.297.664-.664v-4.445c0-3.729-3.024-6.752-6.753-6.752z" fill="#6dc9f7"/><circle cx="19.358" cy="103.972" fill="#ffd7e5" r="15.198"/><circle cx="19.358" cy="97.736" fill="#6dc9f7" r="4.506"/><path d="m19.358 102.852c-3.729 0-6.752 3.023-6.752 6.752v4.445c0 .367.297.664.664.664h12.177c.367 0 .664-.297.664-.664v-4.445c-.001-3.729-3.024-6.752-6.753-6.752z" fill="#6dc9f7"/><circle cx="61.5" cy="61.5" fill="#6dc9f7" r="35.232"/><path d="m61.5 29.268c18.955 0 34.407 14.97 35.194 33.732.021-.498.038-.997.038-1.5 0-19.458-15.774-35.232-35.232-35.232s-35.232 15.774-35.232 35.232c0 .503.017 1.002.038 1.5.787-18.762 16.239-33.732 35.194-33.732z" fill="#fff"/><path d="m65.077 68.055h-1.257c-.754.134-1.527.216-2.32.216s-1.565-.082-2.32-.216h-1.257c-9.02 0-16.375 7.041-16.92 15.923h40.995c-.546-8.882-7.901-15.923-16.921-15.923z" fill="#fa759e"/><path d="m63.82 68.055c-.754.134-1.527.216-2.32.216s-1.565-.082-2.32-.216h-1.257c-.933 0-1.848.076-2.74.221v15.702h12.633v-15.701c-.892-.145-1.807-.221-2.74-.221h-1.256z" fill="#fff"/><path d="m75.546 50.428c-.277 0-.602.026-.841.172v2.799 1.242.427c0 .217-.006.433-.016.648.26.181.548.295.858.295 1.092 0 1.977-1.25 1.977-2.791-.001-1.542-.886-2.792-1.978-2.792z" fill="#fff"/><path d="m48.296 55.067v-.427c0-.385 0-.811 0-1.223v-2.817c-.24-.146-.564-.172-.842-.172-1.092 0-1.977 1.249-1.977 2.791 0 1.541.885 2.791 1.977 2.791.31 0 .598-.113.858-.295-.01-.215-.016-.43-.016-.648z" fill="#fff"/><path d="m68.522 45.672v-.912s-7.041 3.146-14.077 1.249c-.177 2.561-2.289 4.591-4.895 4.591h-1.254v4.467c0 7.293 5.912 13.204 13.204 13.204s13.204-5.912 13.204-13.204v-4.467h-1.254c-2.722 0-4.928-2.206-4.928-4.928z" fill="#fff"/><path d="m74.704 50.6h-1.254c-2.722 0-4.928-2.206-4.928-4.928v-8.505h1.254c2.722 0 4.928 2.206 4.928 4.928z" fill="#0089ef"/><path d="m50.557 44.37c-.919-.55-1.659-1.227-2.261-1.959v8.189h1.254c2.606 0 4.718-2.03 4.894-4.591-1.311-.354-2.622-.882-3.887-1.639z" fill="#0089ef"/><path d="m50.557 44.37c8.054 4.818 17.965.389 17.965.389v-7.593s-2.095-4.088-6.723-4.088c-4.053 0-6.392 3.066-10.256 3.803-2.452.468-5.81-1.467-5.81-1.467s.107 6.135 4.824 8.956z" fill="#0089ef"/><path d="m62.579 77.268h-2.174l-1.15-2.991 1.15-1.84h2.174l1.15 1.84z" fill="#6dc9f7"/><path d="m62.57 77.268h-2.174l-1.372 6.711h4.918z" fill="#6dc9f7"/><g fill="#3a2c60"><path d="m97.554 30.77h12.177c.917 0 1.664-.747 1.664-1.664v-4.445c0-3.254-2.017-6.041-4.865-7.189 1.568-.971 2.618-2.703 2.618-4.679 0-3.036-2.47-5.506-5.506-5.506s-5.505 2.47-5.505 5.506c0 1.976 1.05 3.707 2.618 4.679-2.848 1.148-4.865 3.935-4.865 7.189v4.445c0 .917.746 1.664 1.664 1.664zm6.088-21.483c1.933 0 3.506 1.573 3.506 3.506s-1.573 3.505-3.506 3.505-3.505-1.572-3.505-3.505 1.572-3.506 3.505-3.506zm-5.752 15.374c0-3.172 2.58-5.752 5.752-5.752s5.752 2.581 5.752 5.752v4.109h-11.504z"/><path d="m22.245 17.472c1.568-.971 2.618-2.702 2.618-4.679 0-3.036-2.47-5.506-5.505-5.506-3.036 0-5.506 2.47-5.506 5.506 0 1.976 1.05 3.707 2.618 4.679-2.848 1.148-4.865 3.935-4.865 7.189v4.445c0 .917.747 1.664 1.664 1.664h12.177c.917 0 1.664-.747 1.664-1.664v-4.445c0-3.254-2.017-6.041-4.865-7.189zm-2.887-8.185c1.933 0 3.505 1.573 3.505 3.506s-1.572 3.505-3.505 3.505-3.506-1.572-3.506-3.505 1.573-3.506 3.506-3.506zm5.752 19.483h-11.505v-4.109c0-3.172 2.581-5.752 5.752-5.752s5.752 2.581 5.752 5.752v4.109z"/><path d="m103.642 87.773c-4.023 0-7.7 1.483-10.535 3.92l-5.288-5.288c4.078-4.301 7.134-9.631 8.72-15.652.141-.534-.178-1.081-.712-1.222-.538-.145-1.081.178-1.222.712-1.582 6.005-4.713 11.282-8.892 15.456-.002.002-.006.003-.008.005-.003.003-.003.006-.006.009-6.265 6.25-14.884 10.019-24.199 10.019-18.875 0-34.232-15.356-34.232-34.232s15.357-34.232 34.232-34.232c16.862 0 31.422 12.56 33.867 29.215.08.546.589.928 1.135.844.546-.08.924-.588.844-1.135-1.108-7.55-4.573-14.299-9.569-19.555l5.33-5.33c2.835 2.436 6.512 3.92 10.535 3.92 8.932 0 16.198-7.267 16.198-16.198s-7.266-16.199-16.198-16.199-16.198 7.267-16.198 16.198c0 4.19 1.613 8.001 4.233 10.88l-5.313 5.313c-6.553-6.184-15.363-9.953-24.865-9.953-9.63 0-18.388 3.784-24.884 9.934l-5.293-5.293c2.62-2.879 4.233-6.69 4.233-10.88 0-8.932-7.267-16.198-16.198-16.198s-16.197 7.266-16.197 16.197 7.267 16.198 16.198 16.198c4.023 0 7.7-1.483 10.535-3.919l5.309 5.309c-6.15 6.496-9.934 15.254-9.934 24.884s3.784 18.388 9.934 24.884l-5.309 5.309c-2.835-2.436-6.512-3.919-10.535-3.919-8.932 0-16.198 7.267-16.198 16.198s7.267 16.198 16.198 16.198 16.198-7.267 16.198-16.198c0-4.19-1.613-8.002-4.233-10.88l5.293-5.293c6.496 6.15 15.254 9.934 24.884 9.934 9.512 0 18.336-3.716 24.901-9.917l5.276 5.277c-2.62 2.879-4.233 6.69-4.233 10.88 0 8.932 7.266 16.198 16.198 16.198s16.198-7.267 16.198-16.198-7.266-16.2-16.198-16.2zm0-82.943c7.829 0 14.198 6.369 14.198 14.198s-6.369 14.198-14.198 14.198c-3.823 0-7.291-1.526-9.846-3.992-.005-.005-.007-.013-.012-.018-.009-.009-.021-.011-.03-.02-2.654-2.581-4.31-6.183-4.31-10.168 0-7.829 6.369-14.198 14.198-14.198zm-98.482 14.198c0-7.829 6.369-14.198 14.198-14.198s14.198 6.369 14.198 14.198c0 3.985-1.656 7.586-4.309 10.167-.009.009-.022.012-.031.021-.006.006-.007.013-.013.019-2.555 2.465-6.023 3.991-9.846 3.991-7.828.001-14.197-6.369-14.197-14.198zm14.198 99.142c-7.829 0-14.198-6.369-14.198-14.198s6.369-14.198 14.198-14.198c3.823 0 7.291 1.526 9.846 3.991.005.006.007.014.013.019.009.009.022.012.031.021 2.653 2.581 4.309 6.182 4.309 10.167-.001 7.829-6.37 14.198-14.199 14.198zm84.284 0c-7.829 0-14.198-6.369-14.198-14.198 0-3.986 1.656-7.587 4.31-10.168.009-.008.021-.011.03-.02.005-.005.007-.013.012-.018 2.555-2.466 6.023-3.992 9.846-3.992 7.829 0 14.198 6.369 14.198 14.198s-6.369 14.198-14.198 14.198z"/><path d="m106.53 102.416c1.568-.971 2.618-2.703 2.618-4.679 0-3.036-2.47-5.506-5.506-5.506s-5.505 2.47-5.505 5.506c0 1.977 1.05 3.708 2.618 4.679-2.848 1.148-4.865 3.935-4.865 7.189v4.445c0 .917.746 1.664 1.664 1.664h12.177c.917 0 1.664-.746 1.664-1.664v-4.445c0-3.255-2.018-6.042-4.865-7.189zm-2.888-8.186c1.933 0 3.506 1.573 3.506 3.506s-1.573 3.506-3.506 3.506-3.505-1.573-3.505-3.506 1.572-3.506 3.505-3.506zm5.753 19.483h-11.505v-4.109c0-3.172 2.58-5.752 5.752-5.752s5.752 2.58 5.752 5.752v4.109z"/><path d="m22.245 102.415c1.568-.971 2.618-2.703 2.618-4.679 0-3.036-2.47-5.506-5.505-5.506-3.036 0-5.506 2.47-5.506 5.506 0 1.977 1.05 3.708 2.618 4.679-2.848 1.148-4.865 3.935-4.865 7.188v4.445c0 .917.747 1.664 1.664 1.664h12.177c.917 0 1.664-.746 1.664-1.664v-4.445c0-3.253-2.017-6.04-4.865-7.188zm-2.887-8.185c1.933 0 3.505 1.573 3.505 3.506s-1.572 3.506-3.505 3.506-3.506-1.573-3.506-3.506 1.573-3.506 3.506-3.506zm5.752 19.483h-11.505v-4.109c0-3.172 2.581-5.752 5.752-5.752s5.752 2.58 5.752 5.752v4.109z"/><path d="m95.732 61.5c0 1.401-.086 2.814-.255 4.199-.067.548.323 1.047.872 1.114.041.005.082.007.123.007.498 0 .929-.372.991-.879.179-1.465.27-2.959.27-4.441 0-.552-.448-1-1-1s-1.001.448-1.001 1z"/><path d="m44.954 72.62c-.074.059-.133.132-.189.213-2.727 2.945-4.497 6.8-4.76 11.084-.017.275.081.546.27.747s.453.315.729.315h40.995c.276 0 .54-.114.729-.315s.287-.471.27-.747c-.263-4.285-2.033-8.14-4.76-11.084-.056-.08-.115-.153-.189-.212-2.518-2.634-5.821-4.501-9.517-5.226 3.744-2.143 6.414-5.937 7.027-10.385 1.664-.007 2.967-1.668 2.967-3.79 0-2.057-1.227-3.667-2.818-3.771v-.913-6.44c0-3.269-2.659-5.928-5.928-5.928h-.69c-.805-1.227-3.128-4.088-7.288-4.088-2.522 0-4.41 1.044-6.236 2.055-1.367.756-2.659 1.471-4.208 1.766-1.701.325-4.277-.865-5.125-1.352-.312-.179-.697-.177-1.007.007-.31.183-.498.518-.492.878.004.212.12 4.139 2.564 7.325v5.778.913c-1.591.104-2.818 1.715-2.818 3.771 0 2.122 1.303 3.783 2.967 3.79.612 4.448 3.283 8.242 7.027 10.385-3.699.723-7.002 2.59-9.52 5.224zm.875 2.024c2.466 1.337 4.035 3.902 4.035 6.747v1.587h-7.763c.407-3.171 1.754-6.033 3.728-8.334zm25.307 8.335h-2.319v-13.462c2.604.631 4.97 1.892 6.909 3.635-2.827 1.749-4.589 4.844-4.589 8.24v1.587zm-14.185-13.878 2.159 3.203-1.636 1.6-1.026-4.78c.166-.015.336-.013.503-.023zm3.986 2.336-1.58-2.345c.701.107 1.413.18 2.143.18.724 0 1.43-.072 2.126-.177l-1.579 2.342zm2.936.868 2.161-3.204c.171.01.344.008.514.024l-1.036 4.783zm-7.689 4.295c.113.11.248.198.405.245.095.029.192.042.289.042.258 0 .51-.1.699-.285l1.091-1.068.694 1.804-1.154 5.64h-2.024zm4.183-2.216.592-.948h1.065l.592.948-.725 1.884h-.799zm3.244 2.985.705-1.833 1.091 1.067c.189.186.441.285.699.285.096 0 .193-.014.288-.042.164-.049.307-.141.423-.259v6.392h-2.058zm-9.427 5.61h-2.319v-1.587c0-3.396-1.762-6.491-4.589-8.24 1.939-1.742 4.304-3.004 6.909-3.635v13.462zm6.065 0 .964-4.71h.542l.963 4.71zm12.887 0v-1.587c0-2.845 1.569-5.411 4.035-6.747 1.975 2.3 3.321 5.162 3.728 8.334zm3.386-29.76c0 .892-.411 1.607-.818 1.76v-3.443-.078c.408.154.818.869.818 1.761zm-2.817-11.124v7.505h-.255c-2.166 0-3.928-1.762-3.928-3.928v-.912-6.593h.254c2.166 0 3.929 1.762 3.929 3.928zm-21.975-4.231c1.862-.355 3.356-1.182 4.801-1.981 1.677-.928 3.262-1.805 5.268-1.805 3.446 0 5.272 2.606 5.724 3.352v1.576c-1.244-1.138-3.126-2.256-5.724-2.256-.552 0-1 .448-1 1s.448 1 1 1c3.443 0 5.269 2.602 5.724 3.352v1.979c-2.188.818-10.018 3.279-16.452-.571-2.715-1.625-3.733-4.552-4.114-6.412 1.318.533 3.172 1.069 4.773.766zm1.585 8.851c-.459 1.668-1.986 2.885-3.765 2.885h-.254v-4.878c.239.175.483.348.748.506 1.071.641 2.169 1.121 3.27 1.484 0 .001.001.003.001.003zm-6.837 6.504c0-.893.411-1.607.818-1.761v.142 3.244.136c-.407-.153-.818-.868-.818-1.761zm2.818 1.848v-3.467h.254c1.294 0 2.486-.444 3.465-1.167-.01.09-.024.18-.007.275.085.486.507.829.984.829.057 0 .114-.005.172-.015l2.586-.45c.544-.095.909-.613.814-1.157s-.607-.905-1.157-.814l-2.406.419c.566-.659.997-1.433 1.232-2.298 1.374.284 2.734.409 4.03.409 3.526 0 6.593-.847 8.285-1.428.112 1.256.617 2.399 1.391 3.307l-2.348-.409c-.544-.091-1.062.27-1.157.814s.27 1.062.814 1.157l2.586.45c.058.01.116.015.172.015.477 0 .899-.342.984-.829.014-.081-.001-.157-.006-.235.976.706 2.17 1.127 3.464 1.127h.255v3.467c0 6.729-5.475 12.204-12.205 12.204s-12.202-5.474-12.202-12.204z"/><path d="m61.5 58.829c1.379 0 2.502-1.122 2.502-2.501 0-.552-.448-1-1-1s-1 .448-1 1c0 .276-.225.501-.502.501-.276 0-.501-.225-.501-.501 0-.552-.448-1-1-1s-1 .448-1 1c0 1.379 1.122 2.501 2.501 2.501z"/><circle cx="55.675" cy="53.219" r="1.32"/><path d="m67.326 54.54c.729 0 1.32-.591 1.32-1.32s-.591-1.32-1.32-1.32-1.32.591-1.32 1.32.59 1.32 1.32 1.32z"/><path d="m65.223 61.8c.333-.44.247-1.067-.193-1.401-.441-.335-1.069-.247-1.401.193-.007.01-.762.956-2.129.956-1.372 0-2.079-.891-2.121-.945-.325-.44-.945-.538-1.39-.217-.448.323-.549.948-.226 1.396.052.072 1.303 1.767 3.737 1.767 2.372-.002 3.669-1.678 3.723-1.749z"/></g></svg>